HIERARCHY
ROOT Hips
{
 OFFSET 0.000000 0.000000 0.000000
 CHANNELS 6 Xposition Yposition Zposition Yrotation Xrotation Zrotation
 JOINT Chest
 {
  OFFSET 0.000000 9.585900 0.002600
  CHANNELS 3 Yrotation Xrotation Zrotation
  JOINT Chest2
  {
   OFFSET 0.000000 9.601200 -0.005300
   CHANNELS 3 Yrotation Xrotation Zrotation
   JOINT Chest3
   {
    OFFSET 0.000000 9.561800 0.000000
    CHANNELS 3 Yrotation Xrotation Zrotation
    JOINT Chest4
    {
     OFFSET 0.000000 9.552100 0.000000
     CHANNELS 3 Yrotation Xrotation Zrotation
     JOINT Neck
     {
      OFFSET 0.000000 14.453000 0.000000
      CHANNELS 3 Yrotation Xrotation Zrotation
      JOINT Head
      {
       OFFSET 0.000000 8.936500 -0.011300
       CHANNELS 3 Yrotation Xrotation Zrotation
       End Site
       {
        OFFSET 0.000000 17.073600 -0.006000
       }
      }
     }
     JOINT RightCollar
     {
      OFFSET -2.921100 9.558500 0.000000
      CHANNELS 3 Yrotation Xrotation Zrotation
      JOINT RightShoulder
      {
       OFFSET -13.519700 0.000000 0.000000
       CHANNELS 3 Yrotation Xrotation Zrotation
       JOINT RightElbow
       {
        OFFSET 0.000000 -29.696600 0.000000
        CHANNELS 3 Yrotation Xrotation Zrotation
        JOINT RightWrist
        {
         OFFSET 0.000000 -24.004700 0.000000
         CHANNELS 3 Yrotation Xrotation Zrotation
         End Site
         {
          OFFSET 0.000000 -17.728500 0.000000
         }
        }
       }
      }
     }
     JOINT LeftCollar
     {
      OFFSET 2.921100 9.558500 0.000000
      CHANNELS 3 Yrotation Xrotation Zrotation
      JOINT LeftShoulder
      {
       OFFSET 13.519700 0.000000 0.000000
       CHANNELS 3 Yrotation Xrotation Zrotation
       JOINT LeftElbow
       {
        OFFSET 0.000000 -29.696600 0.000000
        CHANNELS 3 Yrotation Xrotation Zrotation
        JOINT LeftWrist
        {
         OFFSET 0.000000 -24.004700 0.000000
         CHANNELS 3 Yrotation Xrotation Zrotation
         End Site
         {
          OFFSET 0.000000 -17.728500 0.000000
         }
        }
       }
      }
     }
    }
   }
  }
 }
 JOINT RightHip
 {
  OFFSET -7.771700 -0.012900 -0.001300
  CHANNELS 3 Yrotation Xrotation Zrotation
  JOINT RightKnee
  {
   OFFSET 0.000000 -40.869800 0.001200
   CHANNELS 3 Yrotation Xrotation Zrotation
   JOINT RightAnkle
   {
    OFFSET 0.000000 -39.717900 0.002100
    CHANNELS 3 Yrotation Xrotation Zrotation
    JOINT RightToe
    {
     OFFSET 0.000000 -4.965400 11.033500
     CHANNELS 3 Yrotation Xrotation Zrotation
     End Site
     {
      OFFSET 0.000000 -1.423100 5.872300
     }
    }
   }
  }
 }
 JOINT LeftHip
 {
  OFFSET 7.771700 -0.012900 -0.001300
  CHANNELS 3 Yrotation Xrotation Zrotation
  JOINT LeftKnee
  {
   OFFSET 0.000000 -40.869800 0.001200
   CHANNELS 3 Yrotation Xrotation Zrotation
   JOINT LeftAnkle
   {
    OFFSET 0.000000 -39.717900 0.002100
    CHANNELS 3 Yrotation Xrotation Zrotation
    JOINT LeftToe
    {
     OFFSET 0.000000 -4.965400 11.033500
     CHANNELS 3 Yrotation Xrotation Zrotation
     End Site
     {
      OFFSET 0.000000 -1.423100 5.872300
     }
    }
   }
  }
 }
}
MOTION
Frames: 8
Frame Time: 0.008333
-65.894548 63.215455 11.807914 164.807478 -52.015304 -2.684131 7.862333 26.371781 4.550122 1.212640 4.646274 0.333813 1.964762 7.341927 0.557683 6.144334 21.494238 2.489088 2.244569 16.000030 3.367958 2.970689 -6.100376 5.461408 6.387368 5.542974 6.079642 2.215050 -14.597385 -14.639779 -69.964733 -63.111262 110.412414 11.804792 6.548035 -1.364024 -9.599658 1.871367 -0.481152 -6.434629 -13.500809 17.993478 28.616762 -72.481273 -60.942854 7.734727 3.618387 6.019931 -5.112099 -8.469215 9.303931 -28.271247 74.238064 -25.731149 1.513195 -13.042311 -2.487721 -0.413726 0.705543 -0.194068 -4.598361 -15.125706 -0.263439 12.979560 63.560125 6.550403 -2.856906 -9.852720 -0.204263 -0.368493 -0.599455 -0.180370
-65.894448 63.215415 11.805603 164.809357 -52.009646 -2.687598 7.849536 26.367908 4.551816 1.212409 4.645786 0.334870 1.959316 7.339808 0.557647 6.144843 21.495849 2.484558 2.257417 16.006828 3.367244 2.998939 -6.088279 5.441571 6.404015 5.540493 6.071268 2.274935 -14.600986 -14.649643 -69.797012 -63.125527 110.217402 11.835884 6.601386 -1.312545 -9.593054 1.827179 -0.474710 -6.478898 -13.494150 17.969198 27.761378 -72.575490 -60.058524 7.610667 3.721910 5.952059 -5.118455 -8.472412 9.303037 -28.252980 74.239241 -25.714382 1.517334 -13.045376 -2.490153 -0.416375 0.706194 -0.193645 -4.600372 -15.131926 -0.269234 13.005658 63.565572 6.582210 -2.856468 -9.864719 -0.197977 -0.390623 -0.603566 -0.192059
-65.893865 63.215409 11.803494 164.808849 -52.003245 -2.689330 7.840023 26.363496 4.555147 1.212814 4.644859 0.335314 1.951762 7.338262 0.558198 6.144379 21.497197 2.479374 2.270341 16.011600 3.363007 3.034645 -6.071408 5.421755 6.428729 5.534240 6.060064 2.267126 -14.594710 -14.647083 -69.624270 -63.146246 110.069419 11.861635 6.626672 -1.278424 -9.585839 1.781810 -0.469386 -6.488446 -13.462996 17.947152 26.931118 -72.674762 -59.217511 7.451127 3.818499 5.874836 -5.120432 -8.477598 9.304480 -28.254975 74.237811 -25.715367 1.519992 -13.045766 -2.492205 -0.415007 0.705260 -0.192505 -4.599972 -15.138226 -0.272637 13.023573 63.570275 6.604510 -2.853500 -9.873747 -0.194833 -0.371697 -0.616161 -0.185436
-65.893138 63.215381 11.801576 164.810480 -51.996388 -2.690194 7.826348 26.360662 4.559633 1.215119 4.641284 0.330171 1.949223 7.337118 0.559457 6.136121 21.494894 2.478504 2.281112 16.018973 3.350554 3.079085 -6.049701 5.402788 6.479817 5.522845 6.043288 2.258326 -14.584003 -14.639901 -69.457995 -63.169760 109.898024 11.887825 6.654707 -1.249736 -9.578157 1.741376 -0.469045 -6.534756 -13.469391 17.914289 25.984363 -72.733547 -58.219563 7.252583 3.912775 5.784080 -5.130410 -8.482254 9.304773 -28.249482 74.236579 -25.716705 1.523659 -13.045617 -2.493475 -0.415515 0.704956 -0.192510 -4.600864 -15.144044 -0.275421 13.030505 63.572926 6.612483 -2.850362 -9.879597 -0.189339 -0.379645 -0.619949 -0.185157
-65.891558 63.215514 11.799961 164.802497 -51.991494 -2.685128 7.821027 26.355061 4.561754 1.219904 4.641635 0.326800 1.935972 7.332024 0.569546 6.136679 21.498519 2.473454 2.293953 16.026854 3.343066 3.089738 -6.044409 5.390892 6.511483 5.521070 6.027244 2.266328 -14.582419 -14.636192 -69.290049 -63.190623 109.723237 11.915784 6.687328 -1.225492 -9.568807 1.700015 -0.469536 -6.594535 -13.527357 17.866911 24.888674 -72.752286 -57.062577 7.014848 4.010178 5.674746 -5.148254 -8.483813 9.308728 -28.235952 74.233828 -25.722767 1.530209 -13.042755 -2.495349 -0.417654 0.701981 -0.192183 -4.594933 -15.147937 -0.278946 13.037581 63.575984 6.629359 -2.865935 -9.883770 -0.170329 -0.369180 -0.624791 -0.200591
-65.889335 63.215537 11.798830 164.790377 -51.986833 -2.678015 7.822574 26.349188 4.564080 1.221694 4.641487 0.325866 1.932270 7.331731 0.571178 6.133679 21.494742 2.477133 2.317333 16.038664 3.339234 3.089500 -6.042503 5.381043 6.535345 5.522560 6.014105 2.278697 -14.579255 -14.632787 -69.121956 -63.211129 109.550585 11.941730 6.725422 -1.207107 -9.556024 1.660600 -0.469692 -6.631703 -13.563579 17.827183 23.821795 -72.797156 -55.945782 6.745144 4.114222 5.545532 -5.151294 -8.487026 9.314750 -28.258131 74.228282 -25.751963 1.536900 -13.043238 -2.497476 -0.418270 0.700429 -0.190713 -4.582886 -15.153452 -0.286109 13.058566 63.579446 6.668482 -2.873116 -9.882596 -0.174460 -0.373291 -0.633402 -0.198436
-65.886916 63.216205 11.797387 164.781894 -51.988728 -2.672185 7.826130 26.350525 4.565379 1.215744 4.640055 0.329056 1.934060 7.335348 0.568834 6.132372 21.489262 2.478855 2.330918 16.050168 3.332714 3.152100 -6.017002 5.359456 6.545535 5.525584 6.006548 2.320076 -14.589308 -14.638350 -69.028857 -63.215641 109.424640 11.960626 6.806415 -1.183816 -9.547774 1.641761 -0.471692 -6.648089 -13.591532 17.805156 22.796830 -72.877139 -54.877144 6.454623 4.224034 5.398431 -5.155679 -8.482131 9.318347 -28.254219 74.225602 -25.756766 1.539703 -13.047004 -2.500132 -0.422559 0.702654 -0.189669 -4.576051 -15.151424 -0.289857 13.031328 63.585758 6.658190 -2.872199 -9.881863 -0.178299 -0.361830 -0.640892 -0.195060
-65.885508 63.216322 11.796202 164.782693 -51.988460 -2.667320 7.816062 26.352650 4.558068 1.215830 4.640781 0.328665 1.935951 7.338514 0.568680 6.129747 21.488817 2.475992 2.347410 16.056081 3.330585 3.177569 -6.010850 5.351589 6.573589 5.515490 5.997465 2.317901 -14.593400 -14.631601 -68.932749 -63.222422 109.319568 11.981537 6.893757 -1.169003 -9.538768 1.614571 -0.467118 -6.662387 -13.639432 17.775239 21.697441 -72.953851 -53.738218 6.162910 4.340882 5.238861 -5.165863 -8.478891 9.315091 -28.254238 74.221894 -25.766326 1.543132 -13.053622 -2.500757 -0.425126 0.707575 -0.190029 -4.573559 -15.154552 -0.297743 13.033209 63.591022 6.663819 -2.874322 -9.869044 -0.152494 -0.359944 -0.655539 -0.210717
